<svg xmlns="http://www.w3.org/2000/svg" width="228" height="120" viewBox="0 0 228 120" fill="none">
<path d="M0 0H228V120H0V0Z" fill="#161B22"/>
<path d="M171 54H31C29.8954 54 29 54.8954 29 56V105C29 106.105 29.8954 107 31 107H171C172.105 107 173 106.105 173 105V56C173 54.8954 172.105 54 171 54Z" fill="#30363D"/>
<path d="M214 54H186C184.895 54 184 54.8954 184 56V88C184 89.1046 184.895 90 186 90H214C215.105 90 216 89.1046 216 88V56C216 54.8954 215.105 54 214 54Z" fill="#30363D"/>
<path opacity="0.3" d="M173 59H29V71H173V59Z" fill="#A7A7F7"/>
<path opacity="0.6" d="M0 0H228V23H0V0Z" fill="#484F58"/>
<path d="M42 9H16C14.3431 9 13 10.3431 13 12C13 13.6569 14.3431 15 16 15H42C43.6569 15 45 13.6569 45 12C45 10.3431 43.6569 9 42 9Z" fill="#353BCA"/>
<path d="M74 36H32C30.3431 36 29 37.3431 29 39C29 40.6569 30.3431 42 32 42H74C75.6569 42 77 40.6569 77 39C77 37.3431 75.6569 36 74 36Z" fill="#6E7681"/>
<path d="M95 62H37C35.3431 62 34 63.3431 34 65C34 66.6569 35.3431 68 37 68H95C96.6569 68 98 66.6569 98 65C98 63.3431 96.6569 62 95 62Z" fill="#353BCA"/>
<path d="M82 9H56C54.3431 9 53 10.3431 53 12C53 13.6569 54.3431 15 56 15H82C83.6569 15 85 13.6569 85 12C85 10.3431 83.6569 9 82 9Z" fill="#8B949E"/>
<path d="M213 9H187C185.343 9 184 10.3431 184 12C184 13.6569 185.343 15 187 15H213C214.657 15 216 13.6569 216 12C216 10.3431 214.657 9 213 9Z" fill="#545875"/>
</svg>
